<?xml version="1.0" encoding="UTF-8"?>
<svg width="752pt" height="752pt" version="1.1" viewBox="0 0 752 752" xmlns="http://www.w3.org/2000/svg">
 <g>
  <path d="m383.4 498.1h-14.801c-2.043 0-3.6992 1.6562-3.6992 3.6992v88.797c0 2.043 1.6562 3.6992 3.6992 3.6992 2.043 0 3.6992-1.6562 3.6992-3.6992v-85.098h7.3984v85.098h0.003906c0 2.043 1.6562 3.6992 3.6992 3.6992 2.043 0 3.6992-1.6562 3.6992-3.6992v-88.797c0-0.98047-0.39062-1.9219-1.0859-2.6172-0.69141-0.69531-1.6328-1.082-2.6133-1.082z"/>
  <path d="m591.83 277.67c-6.3672-7.4453-15.184-12.375-24.859-13.902l-85.34-13.477c-15.941-2.5156-32.055-3.7773-48.191-3.7812h-38.926l-0.007813-7.7695h-0.003906c4.1758-0.85938 7.9258-3.1328 10.621-6.4336 2.6953-3.3047 4.1719-7.4336 4.1758-11.695v-19.93c4.3555-1.6016 8.1133-4.5039 10.762-8.3164s4.0586-8.3477 4.0352-12.992v-10.562c0-0.98047-0.38672-1.9219-1.082-2.6133-0.69531-0.69531-1.6328-1.0859-2.6172-1.0859h-16.852c-2.9688-0.003906-5.9023-0.67188-8.5781-1.9492l-5.8047-2.7734v-0.003907c-8.4531-4.0469-18.391-3.4727-26.32 1.5195-7.9336 4.9961-12.742 13.715-12.742 23.086v24.52c0.003907 5.2852 2.8242 10.168 7.4023 12.816v24.184h-38.941c-16.141 0.003907-32.25 1.2656-48.191 3.7812l-85.34 13.477c-11.551 1.8203-21.781 8.4688-28.133 18.289-6.3477 9.8203-8.2148 21.879-5.1367 33.16l42.051 154.17c0.53125 1.9648 1.8516 3.6211 3.6445 4.582s3.9023 1.1406 5.832 0.5l15.941-5.3164c3.0312-0.99219 5.082-3.8281 5.0781-7.0195v-21.031l3.3203 3.0234c1.5195 1.3867 3.5039 2.1562 5.5664 2.1602h0.019532c3.6211 0 6.8281-2.3516 7.9141-5.8086 16.508 1.7422 33.191-0.57422 48.602-6.7422l5.5859-2.2344h14.953l-17.738 29.559c-15.82-0.32031-31.309-4.6172-45.035-12.496-0.85156-0.49219-1.8633-0.62109-2.8086-0.36328-0.94922 0.25781-1.7539 0.87891-2.2422 1.7305-0.48828 0.85156-0.61719 1.8633-0.35937 2.8125 0.25781 0.94531 0.88281 1.7539 1.7344 2.2383 14.371 8.2383 30.531 12.855 47.086 13.445v122.17c0 2.043 1.6562 3.6992 3.6992 3.6992s3.6992-1.6562 3.6992-3.6992v-124.77l20.594-34.324h23.805c2.043 0 3.6992-1.6562 3.6992-3.6992s-1.6562-3.7031-3.6992-3.7031h-44.398v-129.49c0-1.0898-0.48047-2.1211-1.3086-2.8242s-1.9258-1.0039-3-0.82812l-63.211 10.535-7.5664-36.266 48.301-7.6289v0.003906c15.562-2.4531 31.289-3.6875 47.043-3.6914h41.109l10.082 10.082-22.621 11.316-12.914-12.914c-1.4453-1.4453-3.7852-1.4453-5.2305 0-1.4453 1.4453-1.4453 3.7852 0 5.2305l14.801 14.801h-0.003906c1.1289 1.125 2.8477 1.4062 4.2734 0.69141l11.488-5.7461 5.2852 10.57-11.02 139.57c-0.058594 0.78906 0.13281 1.582 0.55469 2.2539l18.5 29.598c0.67578 1.082 1.8633 1.7383 3.1367 1.7383 1.2773 0 2.4609-0.65625 3.1406-1.7383l18.5-29.598h-0.003906c0.42188-0.67188 0.61719-1.4648 0.55469-2.2539l-11.02-139.58 5.2461-10.582 11.531 5.7656c1.4258 0.71094 3.1445 0.43359 4.2695-0.69141l14.801-14.801c1.4453-1.4453 1.4453-3.7891 0-5.2344-1.4453-1.4453-3.7891-1.4453-5.2344 0l-12.918 12.918-22.617-11.309 10.098-10.09h41.09c15.75 0.003906 31.477 1.2383 47.039 3.6914l48.301 7.6289-7.5625 36.262-63.211-10.535h0.003907c-1.0742-0.17969-2.1719 0.12109-3.0039 0.82422-0.83203 0.70703-1.3086 1.7383-1.3086 2.8281v129.49h-44.398c-2.043 0-3.6992 1.6602-3.6992 3.7031s1.6562 3.6992 3.6992 3.6992h23.805l20.594 34.324v124.77c0 2.043 1.6562 3.6992 3.6992 3.6992 2.043 0 3.6992-1.6562 3.6992-3.6992v-122.17c16.82-0.61328 33.227-5.3672 47.77-13.84 1.7656-1.0273 2.3594-3.293 1.332-5.0586-1.0312-1.7656-3.2969-2.3633-5.0625-1.332-13.883 8.0859-29.598 12.516-45.664 12.867l-17.738-29.562h14.953l5.5859 2.2344c15.406 6.1836 32.094 8.4961 48.598 6.7344 0.84766 2.7031 3.0156 4.7891 5.7539 5.5312 2.7344 0.73828 5.6562 0.03125 7.7539-1.8789l3.3164-3.0195v21.035-0.003907c-0.007812 3.1875 2.0352 6.0195 5.0625 7.0156l15.949 5.3164h0.003907c1.9297 0.64844 4.0391 0.47266 5.832-0.48828 1.7969-0.95703 3.1133-2.6172 3.6484-4.5781l42.047-154.18c3.5898-13.137 0.44141-27.199-8.4062-37.555zm-300.93 147.62-3.9219 1.5742h-0.003906c-14.734 5.8867-30.715 7.9805-46.469 6.0977l-30.141-120.57 80.535-13.422zm-67.422-122.59-18.281 3.0469h-0.003906c-1.0195 0.17188-1.918 0.75781-2.4844 1.6211s-0.74609 1.9258-0.49609 2.9258l31.867 127.47c0.066406 0.26562 0.007812 0.55078-0.16406 0.76953s-0.42969 0.34375-0.70703 0.34375c-0.22656 0.007813-0.44531-0.074218-0.60547-0.23437l-9.5117-8.6562c-1.082-0.98438-2.6445-1.2383-3.9844-0.64453-1.3398 0.58984-2.207 1.918-2.207 3.3828v29.398l-15.953 5.3203-42.051-154.18c-2.5273-9.2539-0.99609-19.141 4.2148-27.195 5.207-8.0508 13.598-13.504 23.07-14.996l29.719-4.6914zm134.02-117.72c0-6.832 3.5039-13.184 9.2852-16.82 5.7773-3.6406 13.02-4.0586 19.18-1.1055l5.8047 2.7734c3.6758 1.7539 7.6992 2.668 11.773 2.6719h13.152v6.8633c0.019531 3.4844-1.1562 6.8672-3.3281 9.5898-2.168 2.7227-5.207 4.6211-8.6016 5.3789-1.1523 0.26953-2.332 0.39844-3.5156 0.38672-1.6211-0.007812-3.2266-0.27734-4.7617-0.79297l-19.324-6.4375h0.003906c-1.1289-0.375-2.3711-0.1875-3.3359 0.50781-0.96484 0.69922-1.5352 1.8164-1.5352 3.0039 0.003907 1.7695-0.3125 3.5234-0.93359 5.1797-4.418-2.1367-9.6133-1.9453-13.863 0.50781zm22.211 102.51 11 139.38-14.715 23.543-14.715-23.543 11.008-139.38c0.050781-0.66797-0.078125-1.3398-0.37891-1.9414l-5.7461-11.488 9.832-4.9258 9.7969 4.8984-5.7109 11.523c-0.29688 0.59766-0.42578 1.2656-0.375 1.9336zm-3.7148-27.723-11.098-11.098v-28.707c0-1.5703-0.99219-2.9688-2.4727-3.4883-3.3906-1.207-5.4219-4.6797-4.8125-8.2266 0.61328-3.5469 3.6836-6.1406 7.2852-6.1445 1.9336-0.011719 3.793 0.74609 5.1719 2.1055 0.77344 0.76562 1.8477 1.1484 2.9336 1.0508 1.082-0.097656 2.0703-0.66797 2.6953-1.5625 1.6367-2.332 2.8086-4.9648 3.4453-7.7461l15.004 4.9961h-0.003906c2.2773 0.76172 4.6602 1.1602 7.0625 1.1719 0.23047 0 0.46094-0.011719 0.6875-0.019531v18.504c-0.003907 6.125-4.9688 11.09-11.098 11.098-4.5469 0.003907-9.0117-1.1914-12.949-3.4609-1.7617-0.95703-3.9648-0.33594-4.9688 1.3984-1.0039 1.7383-0.44141 3.957 1.2695 5.0039 3.9805 2.293 8.3906 3.7383 12.957 4.2383l0.011719 9.7891zm89.02 167.09-3.9219-1.5742v-126.32l80.535 13.422-30.141 120.57c-15.758 1.8867-31.734-0.21094-46.469-6.1016zm128.08-113.59-42.047 154.18-15.961-5.3164v-29.402c0-1.4648-0.86328-2.793-2.2031-3.3828-1.3398-0.59375-2.9023-0.33984-3.9844 0.64453l-9.5117 8.6562c-0.16406 0.15234-0.37891 0.23437-0.60156 0.23828-0.27734 0-0.53906-0.12891-0.71094-0.34766-0.16797-0.21875-0.23047-0.5-0.16406-0.76953l31.867-127.47c0.25-1 0.070313-2.0625-0.49609-2.9258-0.56641-0.86328-1.4688-1.4492-2.4844-1.6211l-18.281-3.0469 7.5781-36.324 29.719 4.6914c9.4727 1.4922 17.863 6.9453 23.07 15 5.207 8.0547 6.7383 17.945 4.2109 27.195z"/>
  <path d="m254.99 484.38-7.3984 7.3984v0.003906c-1.4453 1.4453-1.4453 3.7852 0 5.2305 1.4453 1.4453 3.7891 1.4453 5.2344 0l7.3984-7.3984c1.4453-1.4453 1.4453-3.7891 0-5.2344-1.4453-1.4453-3.7891-1.4453-5.2344 0z"/>
  <path d="m272.41 487c-2.043 0-3.6992 1.6562-3.6992 3.6992v11.102c0 2.043 1.6562 3.6992 3.6992 3.6992s3.6992-1.6562 3.6992-3.6992v-11.102c0-0.98047-0.39062-1.9219-1.082-2.6133-0.69531-0.69531-1.6367-1.0859-2.6172-1.0859z"/>
  <path d="m253.91 472.2c0-0.98438-0.39062-1.9258-1.082-2.6172-0.69531-0.69531-1.6367-1.0859-2.6172-1.0859h-11.102c-2.043 0-3.6992 1.6562-3.6992 3.7031 0 2.043 1.6562 3.6992 3.6992 3.6992h11.102c0.98047 0 1.9219-0.39063 2.6172-1.0859 0.69141-0.69141 1.082-1.6328 1.082-2.6133z"/>
  <path d="m497.01 491.78c-1.4453-1.4453-3.7852-1.4453-5.2305 0s-1.4453 3.7852 0 5.2305l7.3984 7.3984v0.003906c1.4453 1.4453 3.7891 1.4453 5.2344 0 1.4453-1.4453 1.4453-3.7891 0-5.2344z"/>
  <path d="m479.6 494.4c-2.043 0-3.6992 1.6562-3.6992 3.6992v11.098c0 2.043 1.6562 3.6992 3.6992 3.6992 2.043 0 3.6992-1.6562 3.6992-3.6992v-11.098c0-0.98047-0.39062-1.9219-1.082-2.6172-0.69531-0.69531-1.6367-1.082-2.6172-1.082z"/>
  <path d="m512.89 475.9h-11.098c-2.043 0-3.6992 1.6562-3.6992 3.6992 0 2.043 1.6562 3.6992 3.6992 3.6992h11.098c2.043 0 3.7031-1.6562 3.7031-3.6992 0-2.043-1.6602-3.6992-3.7031-3.6992z"/>
 </g>
</svg>
